<svg width="549" height="50" viewBox="0 0 549 50" fill="none" xmlns="http://www.w3.org/2000/svg">
    <style>
        .logo {
            fill: #E52E51;
        }
        .acronym {
            fill: #A3102C;
        }

        @media (prefers-color-scheme: light) {
            .logo {
                fill: #E52E51;
            }
            .acronym {
                fill: #A3102C;
            }
        }

        @media (prefers-color-scheme: dark) {
            .logo {
                fill: #FFD6DE;
            }
            .acronym {
                fill: #F7F3F4;
            }
        }
    </style>
    <path d="M150.48 46V1.2H158.544V46H150.48Z" class="logo" fill="#E52E51"/>
    <path d="M173.176 46.512C170.701 46.512 168.525 45.9573 166.648 44.848C164.813 43.696 163.384 42.1173 162.36 40.112C161.336 38.1067 160.824 35.8027 160.824 33.2V14.256H168.888V32.56C168.888 34.9493 169.464 36.7413 170.616 37.936C171.811 39.1307 173.496 39.728 175.672 39.728C178.147 39.728 180.067 38.9173 181.432 37.296C182.797 35.632 183.48 33.328 183.48 30.384V14.256H191.544V46H183.608V41.84H182.456C181.944 42.9067 180.984 43.952 179.576 44.976C178.168 46 176.035 46.512 173.176 46.512Z" class="logo" fill="#E52E51"/>
    <path d="M194.117 46V14.256H202.182V46H194.117ZM198.149 10.544C196.699 10.544 195.462 10.0747 194.438 9.136C193.456 8.19733 192.965 6.96 192.965 5.424C192.965 3.888 193.456 2.65067 194.438 1.712C195.462 0.773335 196.699 0.304001 198.149 0.304001C199.643 0.304001 200.88 0.773335 201.861 1.712C202.843 2.65067 203.333 3.888 203.333 5.424C203.333 6.96 202.843 8.19733 201.861 9.136C200.88 10.0747 199.643 10.544 198.149 10.544Z" class="logo" fill="#E52E51"/>
    <path d="M217.902 46.896C213.763 46.896 210.371 46 207.725 44.208C205.08 42.416 203.48 39.856 202.925 36.528L210.35 34.608C210.648 36.1013 211.139 37.2747 211.822 38.128C212.547 38.9813 213.421 39.6 214.445 39.984C215.512 40.3253 216.664 40.496 217.902 40.496C219.779 40.496 221.165 40.176 222.061 39.536C222.957 38.8533 223.406 38.0213 223.406 37.04C223.406 36.0587 222.979 35.312 222.126 34.8C221.272 34.2453 219.907 33.7973 218.029 33.456L216.238 33.136C214.019 32.7093 211.992 32.1333 210.158 31.408C208.323 30.64 206.851 29.5947 205.742 28.272C204.632 26.9493 204.077 25.2427 204.077 23.152C204.077 19.9947 205.229 17.584 207.533 15.92C209.837 14.2133 212.867 13.36 216.621 13.36C220.163 13.36 223.107 14.1493 225.453 15.728C227.8 17.3067 229.336 19.376 230.061 21.936L222.574 24.24C222.232 22.6187 221.528 21.4667 220.462 20.784C219.438 20.1013 218.157 19.76 216.621 19.76C215.085 19.76 213.912 20.0373 213.102 20.592C212.291 21.104 211.885 21.8293 211.885 22.768C211.885 23.792 212.312 24.56 213.165 25.072C214.019 25.5413 215.171 25.904 216.621 26.16L218.413 26.48C220.803 26.9067 222.958 27.4827 224.878 28.208C226.84 28.8907 228.376 29.8933 229.486 31.216C230.638 32.496 231.214 34.2453 231.214 36.464C231.214 39.792 229.997 42.3733 227.565 44.208C225.176 46 221.955 46.896 217.902 46.896Z" class="logo" fill="#E52E51"/>
    <path d="M241.486 46.896C239.225 46.896 237.198 46.512 235.406 45.744C233.614 44.9333 232.185 43.7813 231.118 42.288C230.094 40.752 229.582 38.896 229.582 36.72C229.582 34.544 230.094 32.7307 231.118 31.28C232.185 29.7867 233.635 28.6773 235.47 27.952C237.347 27.184 239.481 26.8 241.87 26.8H250.574V25.008C250.574 23.5147 250.105 22.2987 249.166 21.36C248.227 20.3787 246.734 19.888 244.686 19.888C242.681 19.888 241.187 20.3573 240.206 21.296C239.225 22.192 238.585 23.3653 238.286 24.816L230.862 22.32C231.374 20.6987 232.185 19.2267 233.294 17.904C234.446 16.5387 235.961 15.4507 237.838 14.64C239.758 13.7867 242.083 13.36 244.814 13.36C248.995 13.36 252.302 14.4053 254.734 16.496C257.166 18.5867 258.382 21.616 258.382 25.584V37.424C258.382 38.704 258.979 39.344 260.174 39.344H262.734V46H257.358C255.779 46 254.478 45.616 253.454 44.848C252.43 44.08 251.918 43.056 251.918 41.776V41.712H250.702C250.531 42.224 250.147 42.9067 249.55 43.76C248.953 44.5707 248.014 45.296 246.734 45.936C245.454 46.576 243.705 46.896 241.486 46.896ZM242.894 40.368C245.155 40.368 246.99 39.7493 248.398 38.512C249.849 37.232 250.574 35.5467 250.574 33.456V32.816H242.446C240.953 32.816 239.779 33.136 238.926 33.776C238.073 34.416 237.646 35.312 237.646 36.464C237.646 37.616 238.094 38.5547 238.99 39.28C239.886 40.0053 241.187 40.368 242.894 40.368Z" class="logo" fill="#E52E51"/>
    <path d="M21.656 45.424C20.0773 45.424 18.7333 44.9547 17.624 44.016C16.6 43.2053 15.896 42.1813 15.512 40.944C15.128 39.664 15.1067 38.4267 15.448 37.232C15.448 37.232 15.4693 37.1893 15.512 37.104C15.5547 36.976 15.5973 36.8267 15.64 36.656C13.2933 38.064 11.16 39.1307 9.24 39.856C7.61866 40.4533 5.99733 40.3893 4.376 39.664C2.75466 38.896 1.64533 37.7013 1.048 36.08C0.407997 34.416 0.471997 32.7733 1.24 31.152C2.008 29.5307 3.20266 28.4213 4.824 27.824C5.54933 27.568 6.76533 26.9493 8.472 25.968C10.2213 24.9867 12.5893 23.3013 15.576 20.912C17.368 19.4613 18.84 18.2027 19.992 17.136C21.1867 16.0267 21.784 15.472 21.784 15.472C23.5333 13.808 25.5813 13.2747 27.928 13.872C29.6773 14.3413 31 15.3653 31.896 16.944C32.5787 18.1387 32.8773 19.3547 32.792 20.592C32.7067 21.8293 32.472 23.2587 32.088 24.88C32.0453 25.3067 31.96 25.7333 31.832 26.16C31.704 26.544 31.576 26.9707 31.448 27.44C32.8133 27.3547 34.072 27.6533 35.224 28.336C36.4187 29.0187 37.2933 30 37.848 31.28C38.5733 32.8587 38.616 34.48 37.976 36.144C37.336 37.7653 36.2053 38.9387 34.584 39.664C32.7493 40.4747 31.0853 41.264 29.592 42.032C28.1413 42.8 26.968 43.4187 26.072 43.888C25.2187 44.3573 24.7707 44.592 24.728 44.592C23.704 45.1467 22.68 45.424 21.656 45.424Z" class="logo" fill="#E52E51"/>
    <path d="M42.499 49.2C41.731 49.2 40.9203 49.0933 40.067 48.88C38.147 48.4107 36.7817 47.3227 35.971 45.616C35.4163 44.5067 35.1603 43.504 35.203 42.608C35.2883 41.6693 35.3523 40.9867 35.395 40.56C35.4377 40.3467 35.4803 40.1333 35.523 39.92C35.6083 39.664 35.6723 39.408 35.715 39.152C35.4163 39.3227 35.139 39.472 34.883 39.6C34.627 39.6853 34.3497 39.7707 34.051 39.856C33.3683 40.112 32.643 40.24 31.875 40.24C30.5523 40.24 29.3363 39.8773 28.227 39.152C27.1177 38.384 26.3283 37.3387 25.859 36.016C25.3043 34.3947 25.3897 32.7733 26.115 31.152C26.8403 29.5307 28.035 28.4213 29.699 27.824C29.8697 27.7813 30.2537 27.6107 30.851 27.312C31.4483 26.9707 32.3443 26.352 33.539 25.456C34.7763 24.56 36.3763 23.2587 38.339 21.552C40.0457 20.0587 41.4963 18.7573 42.691 17.648C43.8857 16.496 44.5043 15.8987 44.547 15.856C45.3577 15.0453 46.2963 14.4907 47.363 14.192C48.4723 13.8933 49.5817 13.9147 50.691 14.256C52.5257 14.7253 53.8483 15.792 54.659 17.456C54.915 17.8827 55.1283 18.544 55.299 19.44C55.5123 20.2933 55.4483 21.2747 55.107 22.384C55.107 22.4267 55.0857 22.4693 55.043 22.512C55.0003 22.5547 54.979 22.6187 54.979 22.704C54.9363 22.7893 54.8937 22.896 54.851 23.024C54.851 23.152 54.8297 23.2587 54.787 23.344C54.7017 23.6427 54.5737 23.9627 54.403 24.304C54.275 24.6453 54.1257 25.0507 53.955 25.52C53.7843 25.9467 53.5923 26.4587 53.379 27.056C53.2083 27.6107 52.995 28.1867 52.739 28.784C52.8243 28.7413 52.9097 28.6987 52.995 28.656C53.0803 28.5707 53.1657 28.5067 53.251 28.464C54.7443 27.4827 56.3443 27.184 58.051 27.568C59.7577 27.9093 61.0803 28.8267 62.019 30.32C63.043 31.7707 63.363 33.3707 62.979 35.12C62.6377 36.8693 61.7203 38.2347 60.227 39.216C59.203 39.8987 58.2217 40.5813 57.283 41.264C56.387 41.904 55.4697 42.5867 54.531 43.312C53.4643 44.1227 52.4617 44.8693 51.523 45.552C50.627 46.2347 49.7097 46.832 48.771 47.344C48.0883 47.728 47.4483 48.0267 46.851 48.24C46.2537 48.496 45.6563 48.7093 45.059 48.88C44.1203 49.0933 43.267 49.2 42.499 49.2Z" class="logo" fill="#E52E51"/>
    <path d="M65.3245 43.504C64.8125 43.504 64.2365 43.44 63.5965 43.312C61.6338 42.8 60.1405 41.6267 59.1165 39.792C57.9218 40.2613 56.6845 40.368 55.4045 40.112C54.0818 39.8133 52.9512 39.1307 52.0125 38.064C50.8605 36.7413 50.3485 35.2053 50.4765 33.456C50.5618 31.664 51.2658 30.192 52.5885 29.04C53.0578 28.656 53.5698 28.208 54.1245 27.696C54.6365 27.1413 55.1912 26.5867 55.7885 26.032C56.8125 25.008 57.8792 23.9627 58.9885 22.896C60.1405 21.8293 61.2498 20.8907 62.3165 20.08C63.0418 19.5253 63.7245 19.0347 64.3645 18.608C65.0472 18.1813 65.6872 17.8187 66.2845 17.52C68.5032 16.4533 70.6792 16.1547 72.8125 16.624C75.2445 17.3067 76.9298 18.864 77.8685 21.296C78.4658 23.0027 78.4445 24.7947 77.8045 26.672C77.7192 26.8853 77.6338 27.0987 77.5485 27.312C77.4632 27.5253 77.3565 27.76 77.2285 28.016C78.7645 28.7413 79.8738 29.936 80.5565 31.6C81.1538 33.3067 81.0898 34.9707 80.3645 36.592C79.6392 38.1707 78.4232 39.2587 76.7165 39.856C75.3938 40.368 74.1778 40.8373 73.0685 41.264C71.9592 41.648 71.0205 41.968 70.2525 42.224C69.8258 42.3947 69.4205 42.544 69.0365 42.672C68.6952 42.8 68.4178 42.9067 68.2045 42.992C67.7778 43.0773 67.3298 43.184 66.8605 43.312C66.3912 43.44 65.8792 43.504 65.3245 43.504Z" class="logo" fill="#E52E51"/>
    <path d="M96.8375 44.784C96.2402 44.784 95.5788 44.6773 94.8535 44.464C92.6775 43.952 91.1842 42.6293 90.3735 40.496C89.6908 38.8747 89.7122 37.04 90.4375 34.992C90.6935 34.2667 91.0775 33.4133 91.5895 32.432C91.6748 32.2613 91.7602 32.0693 91.8455 31.856C91.9735 31.6427 92.1015 31.4507 92.2295 31.28C91.2908 31.792 90.3308 32.3467 89.3495 32.944C88.4108 33.4987 87.4508 34.032 86.4695 34.544C84.7628 35.6107 83.0988 36.592 81.4775 37.488C79.8562 38.3413 78.3628 39.0667 76.9975 39.664C75.4188 40.3893 73.7975 40.432 72.1335 39.792C70.4695 39.152 69.2962 38.0213 68.6135 36.4C67.8882 34.7787 67.8455 33.1573 68.4855 31.536C69.1255 29.872 70.2562 28.6987 71.8775 28.016C72.8588 27.5467 74.0748 26.928 75.5255 26.16C76.9762 25.3493 78.4908 24.4747 80.0695 23.536C81.9468 22.4267 83.9308 21.296 86.0215 20.144C88.1122 18.9493 90.1388 17.9253 92.1015 17.072C94.3628 15.9627 96.4748 15.216 98.4375 14.832C99.8028 14.4907 101.083 14.2987 102.277 14.256C103.472 14.2133 104.603 14.3413 105.67 14.64C108.016 15.3227 109.616 16.7733 110.469 18.992C111.109 20.5707 111.195 22.1493 110.726 23.728C110.299 25.264 109.723 26.7147 108.997 28.08C109.125 28.0373 109.254 27.9947 109.382 27.952C109.552 27.9093 109.701 27.8667 109.829 27.824C111.451 27.2267 113.051 27.312 114.63 28.08C116.251 28.8053 117.36 30 117.957 31.664C118.555 33.328 118.491 34.9707 117.766 36.592C117.04 38.1707 115.824 39.2587 114.118 39.856C112.155 40.5387 110.32 41.1787 108.614 41.776C106.95 42.3733 105.478 42.8853 104.198 43.312C102.448 43.824 100.997 44.208 99.8455 44.464C98.7362 44.6773 97.7335 44.784 96.8375 44.784Z" class="logo" fill="#E52E51"/>
    <path d="M116.861 49.584C116.392 49.584 115.944 49.5627 115.517 49.52C115.133 49.52 114.834 49.4987 114.621 49.456C113.426 49.1147 112.36 48.56 111.421 47.792C110.482 47.0667 109.778 46.1707 109.309 45.104C109.01 44.5067 108.818 43.9733 108.733 43.504C108.648 42.992 108.605 42.48 108.605 41.968C108.605 41.2853 108.669 40.624 108.797 39.984C108.413 39.728 108.008 39.4507 107.581 39.152C107.154 38.8107 106.834 38.4907 106.621 38.192C105.597 36.8267 105.085 35.376 105.085 33.84C105.085 32.816 105.32 31.8347 105.789 30.896C106.216 29.9573 106.813 29.1467 107.581 28.464C107.794 28.2507 108.2 27.8453 108.797 27.248C109.352 26.6507 109.864 26.0533 110.333 25.456L111.613 24.048C112.21 23.408 112.829 22.7467 113.469 22.064C114.109 21.3813 114.706 20.7627 115.261 20.208C115.944 19.6107 116.541 19.0987 117.053 18.672C117.565 18.2453 118.013 17.904 118.397 17.648C120.616 16.2827 122.92 15.856 125.309 16.368C127.784 17.008 129.426 18.3947 130.237 20.528L130.173 20.464C130.344 20.848 130.472 21.232 130.557 21.616C130.685 21.9573 130.77 22.32 130.813 22.704C131.41 22.064 131.944 21.4667 132.413 20.912C132.882 20.3147 133.309 19.7813 133.693 19.312L134.589 18.288C134.674 18.2027 134.738 18.1173 134.781 18.032C134.866 17.904 134.909 17.84 134.909 17.84C135.89 16.688 137.042 15.8773 138.365 15.408C139.73 14.896 141.096 14.8107 142.461 15.152C143.4 15.408 144.253 15.8773 145.021 16.56C145.832 17.2427 146.493 18.032 147.005 18.928C147.602 20.2933 147.858 21.4667 147.773 22.448C147.73 23.3867 147.666 24.0267 147.581 24.368C147.538 24.5387 147.474 24.7307 147.389 24.944C147.346 25.1573 147.304 25.3493 147.261 25.52L146.877 26.736L146.813 26.928C147.666 26.9707 148.52 27.2053 149.373 27.632C150.226 28.016 150.93 28.5493 151.485 29.232C152.04 29.9147 152.445 30.6613 152.701 31.472C153 32.2827 153.149 33.072 153.149 33.84C153.149 35.9733 152.274 37.7867 150.525 39.28L150.205 39.6C149.309 40.368 148.349 41.136 147.325 41.904C146.344 42.672 145.298 43.3973 144.189 44.08C141.672 45.5733 139.197 46.32 136.765 46.32C135.741 46.32 134.717 46.1707 133.693 45.872C132.925 45.7013 132.2 45.4027 131.517 44.976C130.877 44.5493 130.322 44.0587 129.853 43.504C129.341 43.9307 128.85 44.336 128.381 44.72C127.912 45.0613 127.378 45.424 126.781 45.808H126.845C125.864 46.4907 124.925 47.0667 124.029 47.536C123.133 48.0053 122.28 48.4107 121.469 48.752C120.786 49.0507 120.018 49.264 119.165 49.392C118.354 49.52 117.586 49.584 116.861 49.584Z" class="logo" fill="#E52E51"/>
    <path d="M281.056 26V14.8H283.168V24.08H288.288V26H281.056Z" class="acronym" fill="#A3102C"/>
    <path d="M293.408 26.224C292.619 26.224 291.92 26.0587 291.312 25.728C290.715 25.3867 290.245 24.912 289.904 24.304C289.573 23.6853 289.408 22.96 289.408 22.128V21.936C289.408 21.104 289.573 20.384 289.904 19.776C290.235 19.1573 290.699 18.6827 291.296 18.352C291.893 18.0107 292.587 17.84 293.376 17.84C294.155 17.84 294.832 18.016 295.408 18.368C295.984 18.7093 296.432 19.1893 296.752 19.808C297.072 20.416 297.232 21.1253 297.232 21.936V22.624H291.456C291.477 23.168 291.68 23.6107 292.064 23.952C292.448 24.2933 292.917 24.464 293.472 24.464C294.037 24.464 294.453 24.3413 294.72 24.096C294.987 23.8507 295.189 23.5787 295.328 23.28L296.976 24.144C296.827 24.4213 296.608 24.7253 296.32 25.056C296.043 25.376 295.669 25.6533 295.2 25.888C294.731 26.112 294.133 26.224 293.408 26.224ZM291.472 21.12H295.184C295.141 20.6613 294.955 20.2933 294.624 20.016C294.304 19.7387 293.883 19.6 293.36 19.6C292.816 19.6 292.384 19.7387 292.064 20.016C291.744 20.2933 291.547 20.6613 291.472 21.12Z" class="acronym" fill="#A3102C"/>
    <path d="M300.456 26L297.928 18.064H300.072L301.912 24.528H302.2L304.04 18.064H306.184L303.656 26H300.456Z" class="acronym" fill="#A3102C"/>
    <path d="M310.939 26.224C310.15 26.224 309.451 26.0587 308.843 25.728C308.246 25.3867 307.776 24.912 307.435 24.304C307.104 23.6853 306.939 22.96 306.939 22.128V21.936C306.939 21.104 307.104 20.384 307.435 19.776C307.766 19.1573 308.23 18.6827 308.827 18.352C309.424 18.0107 310.118 17.84 310.907 17.84C311.686 17.84 312.363 18.016 312.939 18.368C313.515 18.7093 313.963 19.1893 314.283 19.808C314.603 20.416 314.763 21.1253 314.763 21.936V22.624H308.987C309.008 23.168 309.211 23.6107 309.595 23.952C309.979 24.2933 310.448 24.464 311.003 24.464C311.568 24.464 311.984 24.3413 312.251 24.096C312.518 23.8507 312.72 23.5787 312.859 23.28L314.507 24.144C314.358 24.4213 314.139 24.7253 313.851 25.056C313.574 25.376 313.2 25.6533 312.731 25.888C312.262 26.112 311.664 26.224 310.939 26.224ZM309.003 21.12H312.715C312.672 20.6613 312.486 20.2933 312.155 20.016C311.835 19.7387 311.414 19.6 310.891 19.6C310.347 19.6 309.915 19.7387 309.595 20.016C309.275 20.2933 309.078 20.6613 309.003 21.12Z" class="acronym" fill="#A3102C"/>
    <path d="M316.557 26V18.064H318.542V18.96H318.829C318.947 18.64 319.139 18.4053 319.405 18.256C319.683 18.1067 320.003 18.032 320.366 18.032H321.326V19.824H320.333C319.821 19.824 319.4 19.9627 319.069 20.24C318.739 20.5067 318.573 20.9227 318.573 21.488V26H316.557Z" class="acronym" fill="#A3102C"/>
    <path d="M325.178 26.224C324.612 26.224 324.106 26.128 323.658 25.936C323.21 25.7333 322.852 25.4453 322.586 25.072C322.33 24.688 322.202 24.224 322.202 23.68C322.202 23.136 322.33 22.6827 322.586 22.32C322.852 21.9467 323.215 21.6693 323.674 21.488C324.143 21.296 324.676 21.2 325.274 21.2H327.45V20.752C327.45 20.3787 327.332 20.0747 327.098 19.84C326.863 19.5947 326.49 19.472 325.978 19.472C325.476 19.472 325.103 19.5893 324.858 19.824C324.612 20.048 324.452 20.3413 324.378 20.704L322.522 20.08C322.65 19.6747 322.852 19.3067 323.13 18.976C323.418 18.6347 323.796 18.3627 324.266 18.16C324.746 17.9467 325.327 17.84 326.01 17.84C327.055 17.84 327.882 18.1013 328.49 18.624C329.098 19.1467 329.402 19.904 329.402 20.896V23.856C329.402 24.176 329.551 24.336 329.85 24.336H330.49V26H329.146C328.751 26 328.426 25.904 328.17 25.712C327.914 25.52 327.786 25.264 327.786 24.944V24.928H327.482C327.439 25.056 327.343 25.2267 327.194 25.44C327.044 25.6427 326.81 25.824 326.49 25.984C326.17 26.144 325.732 26.224 325.178 26.224ZM325.53 24.592C326.095 24.592 326.554 24.4373 326.906 24.128C327.268 23.808 327.45 23.3867 327.45 22.864V22.704H325.418C325.044 22.704 324.751 22.784 324.538 22.944C324.324 23.104 324.218 23.328 324.218 23.616C324.218 23.904 324.33 24.1387 324.554 24.32C324.778 24.5013 325.103 24.592 325.53 24.592Z" class="acronym" fill="#A3102C"/>
    <path d="M331.423 22.064V21.808C331.423 20.976 331.589 20.2667 331.919 19.68C332.25 19.0827 332.688 18.6293 333.232 18.32C333.786 18 334.389 17.84 335.039 17.84C335.765 17.84 336.314 17.968 336.688 18.224C337.061 18.48 337.333 18.7467 337.504 19.024H337.792V18.064H339.775V27.408C339.775 27.952 339.616 28.384 339.296 28.704C338.976 29.0347 338.549 29.2 338.016 29.2H332.703V27.44H337.311C337.61 27.44 337.759 27.28 337.759 26.96V24.896H337.471C337.365 25.0667 337.215 25.2427 337.023 25.424C336.831 25.5947 336.575 25.7387 336.255 25.856C335.935 25.9733 335.53 26.032 335.039 26.032C334.389 26.032 333.786 25.8773 333.232 25.568C332.688 25.248 332.25 24.7947 331.919 24.208C331.589 23.6107 331.423 22.896 331.423 22.064ZM335.616 24.272C336.234 24.272 336.752 24.0747 337.168 23.68C337.584 23.2853 337.792 22.7307 337.792 22.016V21.856C337.792 21.1307 337.584 20.576 337.168 20.192C336.762 19.7973 336.245 19.6 335.616 19.6C334.997 19.6 334.48 19.7973 334.064 20.192C333.648 20.576 333.439 21.1307 333.439 21.856V22.016C333.439 22.7307 333.648 23.2853 334.064 23.68C334.48 24.0747 334.997 24.272 335.616 24.272Z" class="acronym" fill="#A3102C"/>
    <path d="M342.011 26V18.064H344.027V26H342.011ZM343.019 17.136C342.656 17.136 342.347 17.0187 342.091 16.784C341.845 16.5493 341.723 16.24 341.723 15.856C341.723 15.472 341.845 15.1627 342.091 14.928C342.347 14.6933 342.656 14.576 343.019 14.576C343.392 14.576 343.701 14.6933 343.947 14.928C344.192 15.1627 344.315 15.472 344.315 15.856C344.315 16.24 344.192 16.5493 343.947 16.784C343.701 17.0187 343.392 17.136 343.019 17.136Z" class="acronym" fill="#A3102C"/>
    <path d="M346.261 26V18.064H348.245V19.104H348.533C348.661 18.8267 348.901 18.5653 349.253 18.32C349.605 18.064 350.138 17.936 350.853 17.936C351.471 17.936 352.01 18.08 352.469 18.368C352.938 18.6453 353.301 19.0347 353.557 19.536C353.813 20.0267 353.941 20.6027 353.941 21.264V26H351.925V21.424C351.925 20.8267 351.775 20.3787 351.477 20.08C351.189 19.7813 350.773 19.632 350.229 19.632C349.61 19.632 349.13 19.84 348.789 20.256C348.447 20.6613 348.277 21.232 348.277 21.968V26H346.261Z" class="acronym" fill="#A3102C"/>
    <path d="M355.736 22.064V21.808C355.736 20.976 355.901 20.2667 356.232 19.68C356.563 19.0827 357 18.6293 357.544 18.32C358.099 18 358.701 17.84 359.352 17.84C360.077 17.84 360.627 17.968 361 18.224C361.373 18.48 361.645 18.7467 361.816 19.024H362.104V18.064H364.088V27.408C364.088 27.952 363.928 28.384 363.608 28.704C363.288 29.0347 362.861 29.2 362.328 29.2H357.016V27.44H361.624C361.923 27.44 362.072 27.28 362.072 26.96V24.896H361.784C361.677 25.0667 361.528 25.2427 361.336 25.424C361.144 25.5947 360.888 25.7387 360.568 25.856C360.248 25.9733 359.843 26.032 359.352 26.032C358.701 26.032 358.099 25.8773 357.544 25.568C357 25.248 356.563 24.7947 356.232 24.208C355.901 23.6107 355.736 22.896 355.736 22.064ZM359.928 24.272C360.547 24.272 361.064 24.0747 361.48 23.68C361.896 23.2853 362.104 22.7307 362.104 22.016V21.856C362.104 21.1307 361.896 20.576 361.48 20.192C361.075 19.7973 360.557 19.6 359.928 19.6C359.309 19.6 358.792 19.7973 358.376 20.192C357.96 20.576 357.752 21.1307 357.752 21.856V22.016C357.752 22.7307 357.96 23.2853 358.376 23.68C358.792 24.0747 359.309 24.272 359.928 24.272Z" class="acronym" fill="#A3102C"/>
    <path d="M374.642 26.224C373.724 26.224 372.935 26.0587 372.274 25.728C371.623 25.3867 371.122 24.9067 370.77 24.288C370.428 23.6587 370.258 22.9173 370.258 22.064V14.8H372.37V22.128C372.37 22.8107 372.562 23.3493 372.946 23.744C373.34 24.1387 373.906 24.336 374.642 24.336C375.378 24.336 375.938 24.1387 376.322 23.744C376.716 23.3493 376.914 22.8107 376.914 22.128V14.8H379.026V22.064C379.026 22.9173 378.85 23.6587 378.498 24.288C378.156 24.9067 377.655 25.3867 376.994 25.728C376.343 26.0587 375.559 26.224 374.642 26.224Z" class="acronym" fill="#A3102C"/>
    <path d="M384.432 26.224C383.397 26.224 382.549 26 381.888 25.552C381.226 25.104 380.826 24.464 380.688 23.632L382.544 23.152C382.618 23.5253 382.741 23.8187 382.912 24.032C383.093 24.2453 383.312 24.4 383.568 24.496C383.834 24.5813 384.122 24.624 384.432 24.624C384.901 24.624 385.248 24.544 385.472 24.384C385.696 24.2133 385.808 24.0053 385.808 23.76C385.808 23.5147 385.701 23.328 385.488 23.2C385.274 23.0613 384.933 22.9493 384.464 22.864L384.016 22.784C383.461 22.6773 382.954 22.5333 382.496 22.352C382.037 22.16 381.669 21.8987 381.392 21.568C381.114 21.2373 380.976 20.8107 380.976 20.288C380.976 19.4987 381.264 18.896 381.84 18.48C382.416 18.0533 383.173 17.84 384.112 17.84C384.997 17.84 385.733 18.0373 386.32 18.432C386.906 18.8267 387.29 19.344 387.472 19.984L385.6 20.56C385.514 20.1547 385.338 19.8667 385.072 19.696C384.816 19.5253 384.496 19.44 384.112 19.44C383.728 19.44 383.434 19.5093 383.232 19.648C383.029 19.776 382.928 19.9573 382.928 20.192C382.928 20.448 383.034 20.64 383.248 20.768C383.461 20.8853 383.749 20.976 384.112 21.04L384.56 21.12C385.157 21.2267 385.696 21.3707 386.176 21.552C386.666 21.7227 387.05 21.9733 387.328 22.304C387.616 22.624 387.76 23.0613 387.76 23.616C387.76 24.448 387.456 25.0933 386.848 25.552C386.25 26 385.445 26.224 384.432 26.224Z" class="acronym" fill="#A3102C"/>
    <path d="M393.142 26.224C392.353 26.224 391.654 26.0587 391.046 25.728C390.449 25.3867 389.98 24.912 389.638 24.304C389.308 23.6853 389.142 22.96 389.142 22.128V21.936C389.142 21.104 389.308 20.384 389.638 19.776C389.969 19.1573 390.433 18.6827 391.03 18.352C391.628 18.0107 392.321 17.84 393.11 17.84C393.889 17.84 394.566 18.016 395.142 18.368C395.718 18.7093 396.166 19.1893 396.486 19.808C396.806 20.416 396.966 21.1253 396.966 21.936V22.624H391.19C391.212 23.168 391.414 23.6107 391.798 23.952C392.182 24.2933 392.652 24.464 393.206 24.464C393.772 24.464 394.188 24.3413 394.454 24.096C394.721 23.8507 394.924 23.5787 395.062 23.28L396.71 24.144C396.561 24.4213 396.342 24.7253 396.054 25.056C395.777 25.376 395.404 25.6533 394.934 25.888C394.465 26.112 393.868 26.224 393.142 26.224ZM391.206 21.12H394.918C394.876 20.6613 394.689 20.2933 394.358 20.016C394.038 19.7387 393.617 19.6 393.094 19.6C392.55 19.6 392.118 19.7387 391.798 20.016C391.478 20.2933 391.281 20.6613 391.206 21.12Z" class="acronym" fill="#A3102C"/>
    <path d="M398.761 26V18.064H400.745V18.96H401.033C401.15 18.64 401.342 18.4053 401.609 18.256C401.886 18.1067 402.206 18.032 402.569 18.032H403.529V19.824H402.537C402.025 19.824 401.603 19.9627 401.273 20.24C400.942 20.5067 400.777 20.9227 400.777 21.488V26H398.761Z" class="acronym" fill="#A3102C"/>
    <path d="M409.103 26V14.8H411.215V26H409.103Z" class="acronym" fill="#A3102C"/>
    <path d="M413.386 26V18.064H415.37V19.104H415.658C415.786 18.8267 416.026 18.5653 416.378 18.32C416.73 18.064 417.263 17.936 417.978 17.936C418.596 17.936 419.135 18.08 419.594 18.368C420.063 18.6453 420.426 19.0347 420.682 19.536C420.938 20.0267 421.066 20.6027 421.066 21.264V26H419.05V21.424C419.05 20.8267 418.9 20.3787 418.602 20.08C418.314 19.7813 417.898 19.632 417.354 19.632C416.735 19.632 416.255 19.84 415.914 20.256C415.572 20.6613 415.402 21.232 415.402 21.968V26H413.386Z" class="acronym" fill="#A3102C"/>
    <path d="M426.066 26C425.544 26 425.117 25.84 424.786 25.52C424.466 25.1893 424.306 24.752 424.306 24.208V19.728H422.322V18.064H424.306V15.6H426.322V18.064H428.498V19.728H426.322V23.856C426.322 24.176 426.472 24.336 426.77 24.336H428.306V26H426.066Z" class="acronym" fill="#A3102C"/>
    <path d="M433.658 26.224C432.869 26.224 432.17 26.0587 431.562 25.728C430.965 25.3867 430.495 24.912 430.154 24.304C429.823 23.6853 429.658 22.96 429.658 22.128V21.936C429.658 21.104 429.823 20.384 430.154 19.776C430.485 19.1573 430.949 18.6827 431.546 18.352C432.143 18.0107 432.837 17.84 433.626 17.84C434.405 17.84 435.082 18.016 435.658 18.368C436.234 18.7093 436.682 19.1893 437.002 19.808C437.322 20.416 437.482 21.1253 437.482 21.936V22.624H431.706C431.727 23.168 431.93 23.6107 432.314 23.952C432.698 24.2933 433.167 24.464 433.722 24.464C434.287 24.464 434.703 24.3413 434.97 24.096C435.237 23.8507 435.439 23.5787 435.578 23.28L437.226 24.144C437.077 24.4213 436.858 24.7253 436.57 25.056C436.293 25.376 435.919 25.6533 435.45 25.888C434.981 26.112 434.383 26.224 433.658 26.224ZM431.722 21.12H435.434C435.391 20.6613 435.205 20.2933 434.874 20.016C434.554 19.7387 434.133 19.6 433.61 19.6C433.066 19.6 432.634 19.7387 432.314 20.016C431.994 20.2933 431.797 20.6613 431.722 21.12Z" class="acronym" fill="#A3102C"/>
    <path d="M439.276 26V18.064H441.26V18.96H441.548C441.666 18.64 441.858 18.4053 442.124 18.256C442.402 18.1067 442.722 18.032 443.084 18.032H444.044V19.824H443.052C442.54 19.824 442.119 19.9627 441.788 20.24C441.458 20.5067 441.292 20.9227 441.292 21.488V26H439.276Z" class="acronym" fill="#A3102C"/>
    <path d="M446.932 26V19.728H444.916V18.064H446.932V16.592C446.932 16.048 447.092 15.616 447.412 15.296C447.743 14.9653 448.169 14.8 448.692 14.8H450.772V16.464H449.396C449.097 16.464 448.948 16.624 448.948 16.944V18.064H451.028V19.728H448.948V26H446.932Z" class="acronym" fill="#A3102C"/>
    <path d="M454.928 26.224C454.362 26.224 453.856 26.128 453.408 25.936C452.96 25.7333 452.602 25.4453 452.336 25.072C452.08 24.688 451.952 24.224 451.952 23.68C451.952 23.136 452.08 22.6827 452.336 22.32C452.602 21.9467 452.965 21.6693 453.424 21.488C453.893 21.296 454.426 21.2 455.024 21.2H457.2V20.752C457.2 20.3787 457.082 20.0747 456.848 19.84C456.613 19.5947 456.24 19.472 455.728 19.472C455.226 19.472 454.853 19.5893 454.608 19.824C454.362 20.048 454.202 20.3413 454.128 20.704L452.272 20.08C452.4 19.6747 452.602 19.3067 452.88 18.976C453.168 18.6347 453.546 18.3627 454.016 18.16C454.496 17.9467 455.077 17.84 455.76 17.84C456.805 17.84 457.632 18.1013 458.24 18.624C458.848 19.1467 459.152 19.904 459.152 20.896V23.856C459.152 24.176 459.301 24.336 459.6 24.336H460.24V26H458.896C458.501 26 458.176 25.904 457.92 25.712C457.664 25.52 457.536 25.264 457.536 24.944V24.928H457.232C457.189 25.056 457.093 25.2267 456.944 25.44C456.794 25.6427 456.56 25.824 456.24 25.984C455.92 26.144 455.482 26.224 454.928 26.224ZM455.28 24.592C455.845 24.592 456.304 24.4373 456.656 24.128C457.018 23.808 457.2 23.3867 457.2 22.864V22.704H455.168C454.794 22.704 454.501 22.784 454.288 22.944C454.074 23.104 453.968 23.328 453.968 23.616C453.968 23.904 454.08 24.1387 454.304 24.32C454.528 24.5013 454.853 24.592 455.28 24.592Z" class="acronym" fill="#A3102C"/>
    <path d="M465.285 26.224C464.517 26.224 463.819 26.064 463.189 25.744C462.571 25.424 462.08 24.96 461.717 24.352C461.355 23.744 461.173 23.008 461.173 22.144V21.92C461.173 21.056 461.355 20.32 461.717 19.712C462.08 19.104 462.571 18.64 463.189 18.32C463.819 18 464.517 17.84 465.285 17.84C466.043 17.84 466.693 17.9733 467.237 18.24C467.781 18.5067 468.219 18.8747 468.549 19.344C468.891 19.8027 469.115 20.3253 469.221 20.912L467.27 21.328C467.227 21.008 467.131 20.72 466.982 20.464C466.832 20.208 466.619 20.0053 466.341 19.856C466.075 19.7067 465.739 19.632 465.333 19.632C464.928 19.632 464.56 19.7227 464.229 19.904C463.909 20.0747 463.653 20.336 463.461 20.688C463.28 21.0293 463.189 21.4507 463.189 21.952V22.112C463.189 22.6133 463.28 23.04 463.461 23.392C463.653 23.7333 463.909 23.9947 464.229 24.176C464.56 24.3467 464.928 24.432 465.333 24.432C465.941 24.432 466.4 24.2773 466.71 23.968C467.03 23.648 467.232 23.232 467.318 22.72L469.27 23.184C469.131 23.7493 468.891 24.2667 468.549 24.736C468.219 25.1947 467.781 25.5573 467.237 25.824C466.693 26.0907 466.043 26.224 465.285 26.224Z" class="acronym" fill="#A3102C"/>
    <path d="M474.548 26.224C473.759 26.224 473.06 26.0587 472.452 25.728C471.855 25.3867 471.386 24.912 471.044 24.304C470.714 23.6853 470.548 22.96 470.548 22.128V21.936C470.548 21.104 470.714 20.384 471.044 19.776C471.375 19.1573 471.839 18.6827 472.436 18.352C473.034 18.0107 473.727 17.84 474.517 17.84C475.295 17.84 475.972 18.016 476.548 18.368C477.124 18.7093 477.572 19.1893 477.892 19.808C478.212 20.416 478.372 21.1253 478.372 21.936V22.624H472.596C472.618 23.168 472.82 23.6107 473.204 23.952C473.588 24.2933 474.058 24.464 474.612 24.464C475.178 24.464 475.594 24.3413 475.861 24.096C476.127 23.8507 476.33 23.5787 476.469 23.28L478.116 24.144C477.967 24.4213 477.749 24.7253 477.461 25.056C477.183 25.376 476.81 25.6533 476.34 25.888C475.871 26.112 475.274 26.224 474.548 26.224ZM472.612 21.12H476.324C476.282 20.6613 476.095 20.2933 475.764 20.016C475.444 19.7387 475.023 19.6 474.5 19.6C473.956 19.6 473.524 19.7387 473.204 20.016C472.884 20.2933 472.687 20.6613 472.612 21.12Z" class="acronym" fill="#A3102C"/>
    <path d="M483.463 26.224C482.428 26.224 481.58 26 480.919 25.552C480.258 25.104 479.858 24.464 479.719 23.632L481.575 23.152C481.65 23.5253 481.772 23.8187 481.943 24.032C482.124 24.2453 482.343 24.4 482.599 24.496C482.866 24.5813 483.154 24.624 483.463 24.624C483.932 24.624 484.279 24.544 484.503 24.384C484.727 24.2133 484.839 24.0053 484.839 23.76C484.839 23.5147 484.732 23.328 484.519 23.2C484.306 23.0613 483.964 22.9493 483.495 22.864L483.047 22.784C482.492 22.6773 481.986 22.5333 481.527 22.352C481.068 22.16 480.7 21.8987 480.423 21.568C480.146 21.2373 480.007 20.8107 480.007 20.288C480.007 19.4987 480.295 18.896 480.871 18.48C481.447 18.0533 482.204 17.84 483.143 17.84C484.028 17.84 484.764 18.0373 485.351 18.432C485.938 18.8267 486.322 19.344 486.503 19.984L484.631 20.56C484.546 20.1547 484.37 19.8667 484.103 19.696C483.847 19.5253 483.527 19.44 483.143 19.44C482.759 19.44 482.466 19.5093 482.263 19.648C482.06 19.776 481.959 19.9573 481.959 20.192C481.959 20.448 482.066 20.64 482.279 20.768C482.492 20.8853 482.78 20.976 483.143 21.04L483.591 21.12C484.188 21.2267 484.727 21.3707 485.207 21.552C485.698 21.7227 486.082 21.9733 486.359 22.304C486.647 22.624 486.791 23.0613 486.791 23.616C486.791 24.448 486.487 25.0933 485.879 25.552C485.282 26 484.476 26.224 483.463 26.224Z" class="acronym" fill="#A3102C"/>
    <path d="M281.12 46V38.064H283.136V46H281.12ZM282.128 37.136C281.765 37.136 281.456 37.0187 281.2 36.784C280.955 36.5493 280.832 36.24 280.832 35.856C280.832 35.472 280.955 35.1627 281.2 34.928C281.456 34.6933 281.765 34.576 282.128 34.576C282.501 34.576 282.811 34.6933 283.056 34.928C283.301 35.1627 283.424 35.472 283.424 35.856C283.424 36.24 283.301 36.5493 283.056 36.784C282.811 37.0187 282.501 37.136 282.128 37.136Z" class="acronym" fill="#A3102C"/>
    <path d="M285.37 46V38.064H287.354V39.104H287.642C287.77 38.8267 288.01 38.5653 288.362 38.32C288.714 38.064 289.247 37.936 289.962 37.936C290.581 37.936 291.119 38.08 291.578 38.368C292.047 38.6453 292.41 39.0347 292.666 39.536C292.922 40.0267 293.05 40.6027 293.05 41.264V46H291.034V41.424C291.034 40.8267 290.885 40.3787 290.586 40.08C290.298 39.7813 289.882 39.632 289.338 39.632C288.719 39.632 288.239 39.84 287.898 40.256C287.557 40.6613 287.386 41.232 287.386 41.968V46H285.37Z" class="acronym" fill="#A3102C"/>
    <path d="M303.116 46.224C302.252 46.224 301.489 46.0693 300.828 45.76C300.167 45.4507 299.649 45.008 299.276 44.432C298.903 43.856 298.716 43.1627 298.716 42.352V41.904H300.796V42.352C300.796 43.024 301.004 43.5307 301.42 43.872C301.836 44.2027 302.401 44.368 303.116 44.368C303.841 44.368 304.38 44.224 304.732 43.936C305.095 43.648 305.276 43.28 305.276 42.832C305.276 42.5227 305.185 42.272 305.004 42.08C304.833 41.888 304.577 41.7333 304.236 41.616C303.905 41.488 303.5 41.3707 303.02 41.264L302.652 41.184C301.884 41.0133 301.223 40.8 300.668 40.544C300.124 40.2773 299.703 39.9307 299.404 39.504C299.116 39.0773 298.972 38.5227 298.972 37.84C298.972 37.1573 299.132 36.576 299.452 36.096C299.783 35.6053 300.241 35.232 300.828 34.976C301.425 34.7093 302.124 34.576 302.924 34.576C303.724 34.576 304.433 34.7147 305.052 34.992C305.681 35.2587 306.172 35.664 306.524 36.208C306.887 36.7413 307.068 37.4133 307.068 38.224V38.704H304.988V38.224C304.988 37.7973 304.903 37.456 304.732 37.2C304.572 36.9333 304.337 36.7413 304.028 36.624C303.719 36.496 303.351 36.432 302.924 36.432C302.284 36.432 301.809 36.5547 301.5 36.8C301.201 37.0347 301.052 37.36 301.052 37.776C301.052 38.0533 301.121 38.288 301.26 38.48C301.409 38.672 301.628 38.832 301.916 38.96C302.204 39.088 302.572 39.2 303.02 39.296L303.388 39.376C304.188 39.5467 304.881 39.7653 305.468 40.032C306.065 40.2987 306.529 40.6507 306.86 41.088C307.191 41.5253 307.356 42.0853 307.356 42.768C307.356 43.4507 307.18 44.0533 306.828 44.576C306.487 45.088 305.996 45.4933 305.356 45.792C304.727 46.08 303.98 46.224 303.116 46.224Z" class="acronym" fill="#A3102C"/>
    <path d="M309.635 46L308.515 38.064H310.515L311.219 44.64H311.507L312.531 38.064H315.763L316.787 44.64H317.075L317.779 38.064H319.779L318.659 46H315.315L314.291 39.424H314.003L312.979 46H309.635Z" class="acronym" fill="#A3102C"/>
    <path d="M321.542 46V38.064H323.558V46H321.542ZM322.55 37.136C322.187 37.136 321.878 37.0187 321.622 36.784C321.377 36.5493 321.254 36.24 321.254 35.856C321.254 35.472 321.377 35.1627 321.622 34.928C321.878 34.6933 322.187 34.576 322.55 34.576C322.923 34.576 323.233 34.6933 323.478 34.928C323.723 35.1627 323.846 35.472 323.846 35.856C323.846 36.24 323.723 36.5493 323.478 36.784C323.233 37.0187 322.923 37.136 322.55 37.136Z" class="acronym" fill="#A3102C"/>
    <path d="M327.104 46V39.728H325.088V38.064H327.104V36.592C327.104 36.048 327.264 35.616 327.584 35.296C327.915 34.9653 328.341 34.8 328.864 34.8H330.944V36.464H329.568C329.269 36.464 329.12 36.624 329.12 36.944V38.064H331.2V39.728H329.12V46H327.104Z" class="acronym" fill="#A3102C"/>
    <path d="M335.644 46C335.122 46 334.695 45.84 334.364 45.52C334.044 45.1893 333.884 44.752 333.884 44.208V39.728H331.9V38.064H333.884V35.6H335.9V38.064H338.076V39.728H335.9V43.856C335.9 44.176 336.05 44.336 336.348 44.336H337.884V46H335.644Z" class="acronym" fill="#A3102C"/>
    <path d="M344.157 46.224C343.24 46.224 342.451 46.0587 341.789 45.728C341.139 45.3867 340.637 44.9067 340.285 44.288C339.944 43.6587 339.773 42.9173 339.773 42.064V34.8H341.885V42.128C341.885 42.8107 342.077 43.3493 342.461 43.744C342.856 44.1387 343.421 44.336 344.157 44.336C344.893 44.336 345.453 44.1387 345.837 43.744C346.232 43.3493 346.429 42.8107 346.429 42.128V34.8H348.541V42.064C348.541 42.9173 348.365 43.6587 348.013 44.288C347.672 44.9067 347.171 45.3867 346.509 45.728C345.859 46.0587 345.075 46.224 344.157 46.224Z" class="acronym" fill="#A3102C"/>
    <path d="M350.587 46V34.8H352.699V46H350.587Z" class="acronym" fill="#A3102C"/>
    <path d="M360.245 46V39.728H358.228V38.064H360.245V36.592C360.245 36.048 360.404 35.616 360.724 35.296C361.055 34.9653 361.482 34.8 362.004 34.8H364.085V36.464H362.708C362.41 36.464 362.26 36.624 362.26 36.944V38.064H364.34V39.728H362.26V46H360.245Z" class="acronym" fill="#A3102C"/>
    <path d="M369.412 46.224C368.622 46.224 367.913 46.064 367.284 45.744C366.654 45.424 366.158 44.96 365.796 44.352C365.433 43.744 365.252 43.0133 365.252 42.16V41.904C365.252 41.0507 365.433 40.32 365.796 39.712C366.158 39.104 366.654 38.64 367.284 38.32C367.913 38 368.622 37.84 369.412 37.84C370.201 37.84 370.91 38 371.54 38.32C372.169 38.64 372.665 39.104 373.028 39.712C373.39 40.32 373.572 41.0507 373.572 41.904V42.16C373.572 43.0133 373.39 43.744 373.028 44.352C372.665 44.96 372.169 45.424 371.54 45.744C370.91 46.064 370.201 46.224 369.412 46.224ZM369.412 44.432C370.03 44.432 370.542 44.2347 370.948 43.84C371.353 43.4347 371.556 42.8587 371.556 42.112V41.952C371.556 41.2053 371.353 40.6347 370.948 40.24C370.553 39.8347 370.041 39.632 369.412 39.632C368.793 39.632 368.281 39.8347 367.876 40.24C367.47 40.6347 367.268 41.2053 367.268 41.952V42.112C367.268 42.8587 367.47 43.4347 367.876 43.84C368.281 44.2347 368.793 44.432 369.412 44.432Z" class="acronym" fill="#A3102C"/>
    <path d="M375.432 46V38.064H377.417V38.96H377.704C377.822 38.64 378.014 38.4053 378.28 38.256C378.558 38.1067 378.878 38.032 379.241 38.032H380.201V39.824H379.208C378.696 39.824 378.275 39.9627 377.944 40.24C377.614 40.5067 377.448 40.9227 377.448 41.488V46H375.432Z" class="acronym" fill="#A3102C"/>
    <path d="M384.819 46L387.763 34.8H391.443L394.387 46H392.211L391.603 43.536H387.603L386.995 46H384.819ZM388.099 41.584H391.107L389.747 36.128H389.459L388.099 41.584Z" class="acronym" fill="#A3102C"/>
    <path d="M399.52 46.224C398.752 46.224 398.053 46.064 397.424 45.744C396.805 45.424 396.315 44.96 395.952 44.352C395.589 43.744 395.408 43.008 395.408 42.144V41.92C395.408 41.056 395.589 40.32 395.952 39.712C396.315 39.104 396.805 38.64 397.424 38.32C398.053 38 398.752 37.84 399.52 37.84C400.277 37.84 400.928 37.9733 401.472 38.24C402.016 38.5067 402.453 38.8747 402.784 39.344C403.125 39.8027 403.349 40.3253 403.456 40.912L401.504 41.328C401.461 41.008 401.365 40.72 401.216 40.464C401.067 40.208 400.853 40.0053 400.576 39.856C400.309 39.7067 399.973 39.632 399.568 39.632C399.163 39.632 398.795 39.7227 398.464 39.904C398.144 40.0747 397.888 40.336 397.696 40.688C397.515 41.0293 397.424 41.4507 397.424 41.952V42.112C397.424 42.6133 397.515 43.04 397.696 43.392C397.888 43.7333 398.144 43.9947 398.464 44.176C398.795 44.3467 399.163 44.432 399.568 44.432C400.176 44.432 400.635 44.2773 400.944 43.968C401.264 43.648 401.467 43.232 401.552 42.72L403.504 43.184C403.365 43.7493 403.125 44.2667 402.784 44.736C402.453 45.1947 402.016 45.5573 401.472 45.824C400.928 46.0907 400.277 46.224 399.52 46.224Z" class="acronym" fill="#A3102C"/>
    <path d="M408.895 46.224C408.127 46.224 407.428 46.064 406.799 45.744C406.18 45.424 405.69 44.96 405.327 44.352C404.964 43.744 404.783 43.008 404.783 42.144V41.92C404.783 41.056 404.964 40.32 405.327 39.712C405.69 39.104 406.18 38.64 406.799 38.32C407.428 38 408.127 37.84 408.895 37.84C409.652 37.84 410.303 37.9733 410.847 38.24C411.391 38.5067 411.828 38.8747 412.159 39.344C412.5 39.8027 412.724 40.3253 412.831 40.912L410.879 41.328C410.836 41.008 410.74 40.72 410.591 40.464C410.442 40.208 410.228 40.0053 409.951 39.856C409.684 39.7067 409.348 39.632 408.943 39.632C408.538 39.632 408.17 39.7227 407.839 39.904C407.519 40.0747 407.263 40.336 407.071 40.688C406.89 41.0293 406.799 41.4507 406.799 41.952V42.112C406.799 42.6133 406.89 43.04 407.071 43.392C407.263 43.7333 407.519 43.9947 407.839 44.176C408.17 44.3467 408.538 44.432 408.943 44.432C409.551 44.432 410.01 44.2773 410.319 43.968C410.639 43.648 410.842 43.232 410.927 42.72L412.879 43.184C412.74 43.7493 412.5 44.2667 412.159 44.736C411.828 45.1947 411.391 45.5573 410.847 45.824C410.303 46.0907 409.652 46.224 408.895 46.224Z" class="acronym" fill="#A3102C"/>
    <path d="M418.158 46.224C417.369 46.224 416.67 46.0587 416.062 45.728C415.465 45.3867 414.995 44.912 414.654 44.304C414.323 43.6853 414.158 42.96 414.158 42.128V41.936C414.158 41.104 414.323 40.384 414.654 39.776C414.985 39.1573 415.449 38.6827 416.046 38.352C416.643 38.0107 417.337 37.84 418.126 37.84C418.905 37.84 419.582 38.016 420.158 38.368C420.734 38.7093 421.182 39.1893 421.502 39.808C421.822 40.416 421.982 41.1253 421.982 41.936V42.624H416.206C416.227 43.168 416.43 43.6107 416.814 43.952C417.198 44.2933 417.667 44.464 418.222 44.464C418.787 44.464 419.203 44.3413 419.47 44.096C419.737 43.8507 419.939 43.5787 420.078 43.28L421.726 44.144C421.577 44.4213 421.358 44.7253 421.07 45.056C420.793 45.376 420.419 45.6533 419.95 45.888C419.481 46.112 418.883 46.224 418.158 46.224ZM416.222 41.12H419.934C419.891 40.6613 419.705 40.2933 419.374 40.016C419.054 39.7387 418.633 39.6 418.11 39.6C417.566 39.6 417.134 39.7387 416.814 40.016C416.494 40.2933 416.297 40.6613 416.222 41.12Z" class="acronym" fill="#A3102C"/>
    <path d="M427.072 46.224C426.038 46.224 425.19 46 424.528 45.552C423.867 45.104 423.467 44.464 423.328 43.632L425.184 43.152C425.259 43.5253 425.382 43.8187 425.552 44.032C425.734 44.2453 425.952 44.4 426.208 44.496C426.475 44.5813 426.763 44.624 427.072 44.624C427.542 44.624 427.888 44.544 428.112 44.384C428.336 44.2133 428.448 44.0053 428.448 43.76C428.448 43.5147 428.342 43.328 428.128 43.2C427.915 43.0613 427.574 42.9493 427.104 42.864L426.656 42.784C426.102 42.6773 425.595 42.5333 425.136 42.352C424.678 42.16 424.31 41.8987 424.032 41.568C423.755 41.2373 423.616 40.8107 423.616 40.288C423.616 39.4987 423.904 38.896 424.48 38.48C425.056 38.0533 425.814 37.84 426.752 37.84C427.638 37.84 428.374 38.0373 428.96 38.432C429.547 38.8267 429.931 39.344 430.112 39.984L428.24 40.56C428.155 40.1547 427.979 39.8667 427.712 39.696C427.456 39.5253 427.136 39.44 426.752 39.44C426.368 39.44 426.075 39.5093 425.872 39.648C425.67 39.776 425.568 39.9573 425.568 40.192C425.568 40.448 425.675 40.64 425.888 40.768C426.102 40.8853 426.39 40.976 426.752 41.04L427.2 41.12C427.798 41.2267 428.336 41.3707 428.816 41.552C429.307 41.7227 429.691 41.9733 429.968 42.304C430.256 42.624 430.4 43.0613 430.4 43.616C430.4 44.448 430.096 45.0933 429.488 45.552C428.891 46 428.086 46.224 427.072 46.224Z" class="acronym" fill="#A3102C"/>
    <path d="M435.463 46.224C434.428 46.224 433.58 46 432.919 45.552C432.258 45.104 431.858 44.464 431.719 43.632L433.575 43.152C433.65 43.5253 433.772 43.8187 433.943 44.032C434.124 44.2453 434.343 44.4 434.599 44.496C434.866 44.5813 435.154 44.624 435.463 44.624C435.932 44.624 436.279 44.544 436.503 44.384C436.727 44.2133 436.839 44.0053 436.839 43.76C436.839 43.5147 436.732 43.328 436.519 43.2C436.306 43.0613 435.964 42.9493 435.495 42.864L435.047 42.784C434.492 42.6773 433.986 42.5333 433.527 42.352C433.068 42.16 432.7 41.8987 432.423 41.568C432.146 41.2373 432.007 40.8107 432.007 40.288C432.007 39.4987 432.295 38.896 432.871 38.48C433.447 38.0533 434.204 37.84 435.143 37.84C436.028 37.84 436.764 38.0373 437.351 38.432C437.938 38.8267 438.322 39.344 438.503 39.984L436.631 40.56C436.546 40.1547 436.37 39.8667 436.103 39.696C435.847 39.5253 435.527 39.44 435.143 39.44C434.759 39.44 434.466 39.5093 434.263 39.648C434.06 39.776 433.959 39.9573 433.959 40.192C433.959 40.448 434.066 40.64 434.279 40.768C434.492 40.8853 434.78 40.976 435.143 41.04L435.591 41.12C436.188 41.2267 436.727 41.3707 437.207 41.552C437.698 41.7227 438.082 41.9733 438.359 42.304C438.647 42.624 438.791 43.0613 438.791 43.616C438.791 44.448 438.487 45.0933 437.879 45.552C437.282 46 436.476 46.224 435.463 46.224Z" class="acronym" fill="#A3102C"/>
    <path d="M440.557 46V38.064H442.573V46H440.557ZM441.565 37.136C441.203 37.136 440.894 37.0187 440.638 36.784C440.392 36.5493 440.27 36.24 440.27 35.856C440.27 35.472 440.392 35.1627 440.638 34.928C440.894 34.6933 441.203 34.576 441.565 34.576C441.939 34.576 442.248 34.6933 442.493 34.928C442.739 35.1627 442.862 35.472 442.862 35.856C442.862 36.24 442.739 36.5493 442.493 36.784C442.248 37.0187 441.939 37.136 441.565 37.136Z" class="acronym" fill="#A3102C"/>
    <path d="M449.576 46.224C448.861 46.224 448.311 46.1013 447.927 45.856C447.543 45.6107 447.261 45.3387 447.079 45.04H446.792V46H444.807V34.8H446.823V38.976H447.112C447.229 38.784 447.384 38.6027 447.576 38.432C447.778 38.2613 448.039 38.1227 448.359 38.016C448.69 37.8987 449.096 37.84 449.576 37.84C450.216 37.84 450.808 38 451.352 38.32C451.896 38.6293 452.333 39.088 452.663 39.696C452.994 40.304 453.159 41.04 453.159 41.904V42.16C453.159 43.024 452.994 43.76 452.663 44.368C452.333 44.976 451.896 45.44 451.352 45.76C450.808 46.0693 450.216 46.224 449.576 46.224ZM448.967 44.464C449.586 44.464 450.104 44.2667 450.52 43.872C450.936 43.4667 451.143 42.88 451.143 42.112V41.952C451.143 41.184 450.936 40.6027 450.52 40.208C450.114 39.8027 449.597 39.6 448.967 39.6C448.349 39.6 447.831 39.8027 447.415 40.208C446.999 40.6027 446.792 41.184 446.792 41.952V42.112C446.792 42.88 446.999 43.4667 447.415 43.872C447.831 44.2667 448.349 44.464 448.967 44.464Z" class="acronym" fill="#A3102C"/>
    <path d="M455.011 46V38.064H457.027V46H455.011ZM456.019 37.136C455.656 37.136 455.347 37.0187 455.091 36.784C454.845 36.5493 454.723 36.24 454.723 35.856C454.723 35.472 454.845 35.1627 455.091 34.928C455.347 34.6933 455.656 34.576 456.019 34.576C456.392 34.576 456.701 34.6933 456.947 34.928C457.192 35.1627 457.315 35.472 457.315 35.856C457.315 36.24 457.192 36.5493 456.947 36.784C456.701 37.0187 456.392 37.136 456.019 37.136Z" class="acronym" fill="#A3102C"/>
    <path d="M459.261 46V34.8H461.277V46H459.261Z" class="acronym" fill="#A3102C"/>
    <path d="M463.511 46V38.064H465.527V46H463.511ZM464.519 37.136C464.156 37.136 463.847 37.0187 463.591 36.784C463.345 36.5493 463.223 36.24 463.223 35.856C463.223 35.472 463.345 35.1627 463.591 34.928C463.847 34.6933 464.156 34.576 464.519 34.576C464.892 34.576 465.201 34.6933 465.447 34.928C465.692 35.1627 465.815 35.472 465.815 35.856C465.815 36.24 465.692 36.5493 465.447 36.784C465.201 37.0187 464.892 37.136 464.519 37.136Z" class="acronym" fill="#A3102C"/>
    <path d="M470.801 46C470.278 46 469.851 45.84 469.521 45.52C469.201 45.1893 469.041 44.752 469.041 44.208V39.728H467.057V38.064H469.041V35.6H471.057V38.064H473.233V39.728H471.057V43.856C471.057 44.176 471.206 44.336 471.505 44.336H473.041V46H470.801Z" class="acronym" fill="#A3102C"/>
    <path d="M475.922 49.2V47.44H480.241C480.54 47.44 480.689 47.28 480.689 46.96V44.96H480.401C480.316 45.1413 480.183 45.3227 480.001 45.504C479.82 45.6853 479.575 45.8347 479.266 45.952C478.956 46.0693 478.561 46.128 478.081 46.128C477.463 46.128 476.919 45.9893 476.449 45.712C475.991 45.424 475.634 45.0293 475.378 44.528C475.122 44.0267 474.993 43.4507 474.993 42.8V38.064H477.009V42.64C477.009 43.2373 477.153 43.6853 477.441 43.984C477.74 44.2827 478.162 44.432 478.706 44.432C479.324 44.432 479.804 44.2293 480.146 43.824C480.487 43.408 480.658 42.832 480.658 42.096V38.064H482.673V47.408C482.673 47.952 482.514 48.384 482.194 48.704C481.874 49.0347 481.447 49.2 480.913 49.2H475.922Z" class="acronym" fill="#A3102C"/>
    <path d="M491.023 46V36.72H487.759V34.8H496.399V36.72H493.135V46H491.023Z" class="acronym" fill="#A3102C"/>
    <path d="M496.807 46V38.064H498.792V38.96H499.079C499.197 38.64 499.389 38.4053 499.655 38.256C499.933 38.1067 500.253 38.032 500.616 38.032H501.576V39.824H500.583C500.071 39.824 499.65 39.9627 499.319 40.24C498.989 40.5067 498.823 40.9227 498.823 41.488V46H496.807Z" class="acronym" fill="#A3102C"/>
    <path d="M505.428 46.224C504.862 46.224 504.356 46.128 503.908 45.936C503.46 45.7333 503.102 45.4453 502.836 45.072C502.58 44.688 502.452 44.224 502.452 43.68C502.452 43.136 502.58 42.6827 502.836 42.32C503.102 41.9467 503.465 41.6693 503.924 41.488C504.393 41.296 504.926 41.2 505.524 41.2H507.7V40.752C507.7 40.3787 507.582 40.0747 507.348 39.84C507.113 39.5947 506.74 39.472 506.228 39.472C505.726 39.472 505.353 39.5893 505.108 39.824C504.862 40.048 504.702 40.3413 504.628 40.704L502.772 40.08C502.9 39.6747 503.102 39.3067 503.38 38.976C503.668 38.6347 504.046 38.3627 504.516 38.16C504.996 37.9467 505.577 37.84 506.26 37.84C507.305 37.84 508.132 38.1013 508.74 38.624C509.348 39.1467 509.652 39.904 509.652 40.896V43.856C509.652 44.176 509.801 44.336 510.1 44.336H510.74V46H509.396C509.001 46 508.676 45.904 508.42 45.712C508.164 45.52 508.036 45.264 508.036 44.944V44.928H507.732C507.689 45.056 507.593 45.2267 507.444 45.44C507.294 45.6427 507.06 45.824 506.74 45.984C506.42 46.144 505.982 46.224 505.428 46.224ZM505.78 44.592C506.345 44.592 506.804 44.4373 507.156 44.128C507.518 43.808 507.7 43.3867 507.7 42.864V42.704H505.668C505.294 42.704 505.001 42.784 504.788 42.944C504.574 43.104 504.468 43.328 504.468 43.616C504.468 43.904 504.58 44.1387 504.804 44.32C505.028 44.5013 505.353 44.592 505.78 44.592Z" class="acronym" fill="#A3102C"/>
    <path d="M512.214 46V38.064H514.23V46H512.214ZM513.222 37.136C512.859 37.136 512.55 37.0187 512.294 36.784C512.048 36.5493 511.926 36.24 511.926 35.856C511.926 35.472 512.048 35.1627 512.294 34.928C512.55 34.6933 512.859 34.576 513.222 34.576C513.595 34.576 513.904 34.6933 514.15 34.928C514.395 35.1627 514.518 35.472 514.518 35.856C514.518 36.24 514.395 36.5493 514.15 36.784C513.904 37.0187 513.595 37.136 513.222 37.136Z" class="acronym" fill="#A3102C"/>
    <path d="M516.464 46V38.064H518.448V39.104H518.736C518.864 38.8267 519.104 38.5653 519.456 38.32C519.808 38.064 520.341 37.936 521.056 37.936C521.674 37.936 522.213 38.08 522.672 38.368C523.141 38.6453 523.504 39.0347 523.76 39.536C524.016 40.0267 524.144 40.6027 524.144 41.264V46H522.128V41.424C522.128 40.8267 521.978 40.3787 521.68 40.08C521.392 39.7813 520.976 39.632 520.432 39.632C519.813 39.632 519.333 39.84 518.992 40.256C518.65 40.6613 518.48 41.232 518.48 41.968V46H516.464Z" class="acronym" fill="#A3102C"/>
    <path d="M526.323 46V38.064H528.339V46H526.323ZM527.331 37.136C526.968 37.136 526.659 37.0187 526.403 36.784C526.158 36.5493 526.035 36.24 526.035 35.856C526.035 35.472 526.158 35.1627 526.403 34.928C526.659 34.6933 526.968 34.576 527.331 34.576C527.704 34.576 528.014 34.6933 528.259 34.928C528.504 35.1627 528.627 35.472 528.627 35.856C528.627 36.24 528.504 36.5493 528.259 36.784C528.014 37.0187 527.704 37.136 527.331 37.136Z" class="acronym" fill="#A3102C"/>
    <path d="M530.573 46V38.064H532.557V39.104H532.845C532.973 38.8267 533.213 38.5653 533.565 38.32C533.917 38.064 534.45 37.936 535.165 37.936C535.784 37.936 536.322 38.08 536.781 38.368C537.25 38.6453 537.613 39.0347 537.869 39.536C538.125 40.0267 538.253 40.6027 538.253 41.264V46H536.237V41.424C536.237 40.8267 536.088 40.3787 535.789 40.08C535.501 39.7813 535.085 39.632 534.541 39.632C533.922 39.632 533.442 39.84 533.101 40.256C532.76 40.6613 532.589 41.232 532.589 41.968V46H530.573Z" class="acronym" fill="#A3102C"/>
    <path d="M540.049 42.064V41.808C540.049 40.976 540.214 40.2667 540.544 39.68C540.875 39.0827 541.313 38.6293 541.857 38.32C542.411 38 543.014 37.84 543.664 37.84C544.39 37.84 544.939 37.968 545.312 38.224C545.686 38.48 545.958 38.7467 546.128 39.024H546.417V38.064H548.401V47.408C548.401 47.952 548.24 48.384 547.92 48.704C547.6 49.0347 547.174 49.2 546.641 49.2H541.328V47.44H545.937C546.235 47.44 546.385 47.28 546.385 46.96V44.896H546.096C545.99 45.0667 545.84 45.2427 545.648 45.424C545.456 45.5947 545.2 45.7387 544.88 45.856C544.56 45.9733 544.155 46.032 543.664 46.032C543.014 46.032 542.411 45.8773 541.857 45.568C541.313 45.248 540.875 44.7947 540.544 44.208C540.214 43.6107 540.049 42.896 540.049 42.064ZM544.24 44.272C544.859 44.272 545.376 44.0747 545.792 43.68C546.208 43.2853 546.417 42.7307 546.417 42.016V41.856C546.417 41.1307 546.208 40.576 545.792 40.192C545.387 39.7973 544.87 39.6 544.24 39.6C543.622 39.6 543.104 39.7973 542.688 40.192C542.272 40.576 542.065 41.1307 542.065 41.856V42.016C542.065 42.7307 542.272 43.2853 542.688 43.68C543.104 44.0747 543.622 44.272 544.24 44.272Z" class="acronym" fill="#A3102C"/>
</svg>
    